#tb 0: 1/15
0,          0,          0,        1,   921600, 0xd82e4d57
0,          1,          1,        1,   921600, 0x83f2349c
0,          2,          2,        1,   921600, 0x70d87db0
0,          3,          3,        1,   921600, 0x66d27b93
0,          4,          4,        1,   921600, 0xb730941c
0,          5,          5,        1,   921600, 0x15da4934
0,          6,          6,        1,   921600, 0x1953968a
0,          7,          7,        1,   921600, 0xf0d730a0
0,          8,          8,        1,   921600, 0x35a7d30c
0,          9,          9,        1,   921600, 0x33667f62
0,         10,         10,        1,   921600, 0xf4707f6b
0,         11,         11,        1,   921600, 0xaac6c392
0,         12,         12,        1,   921600, 0x68397d16
0,         13,         13,        1,   921600, 0xb2aa0450
0,         14,         14,        1,   921600, 0xba25c62e
